<?xml version="1.0" encoding="iso-8859-1"?>
<!-- Generator: Adobe Illustrator 19.0.0, SVG Export Plug-In . SVG Version: 6.00 Build 0)  -->
<svg version="1.1" id="Layer_1" xmlns="http://www.w3.org/2000/svg" xmlns:xlink="http://www.w3.org/1999/xlink" x="0px" y="0px"
	 viewBox="0 0 512 512" style="enable-background:new 0 0 512 512;" xml:space="preserve">
<g>
	<g>
		<path d="M456.529,304.983c-21.627-12.486-48.049-9.371-66.155,5.828l-43.669-25.213c6.296-19.243,6.301-39.94,0-59.197
			l43.682-25.219c18.193,15.268,44.586,18.281,66.143,5.834c27.686-15.982,37.16-51.328,21.172-79.016
			c-15.983-27.686-51.328-37.161-79.016-21.173c-22.06,12.735-32.129,37.384-28.055,60.221l-43.679,25.218
			c-13.283-14.771-31.094-25.385-51.232-29.634v-50.407c22.216-8.081,38.125-29.405,38.125-54.38
			C313.843,25.949,287.896,0,255.999,0c-31.896,0-57.844,25.949-57.844,57.844c0,24.975,15.909,46.299,38.125,54.38v50.409
			c-20.137,4.249-37.949,14.862-51.232,29.634l-43.679-25.218c1.47-8.241,1.127-16.772-1.104-25.097
			c-3.999-14.925-13.569-27.399-26.951-35.124C85.63,90.844,50.284,100.309,34.298,128c-15.984,27.684-6.519,63.03,21.172,79.016
			c21.554,12.447,47.946,9.434,66.142-5.836l43.682,25.221c-6.297,19.246-6.3,39.94,0,59.197l-43.669,25.213
			c-18.107-15.2-44.53-18.315-66.155-5.828c-27.686,15.982-37.16,51.328-21.172,79.016c15.951,27.633,51.27,37.194,79.016,21.173
			c22.058-12.733,32.129-37.382,28.055-60.221l43.679-25.218c13.283,14.771,31.094,25.385,51.232,29.634v50.409
			c-22.216,8.081-38.125,29.405-38.125,54.38c0,31.895,25.948,57.844,57.844,57.844s57.844-25.949,57.844-57.844
			c0-24.975-15.909-46.299-38.125-54.38v-50.409c20.137-4.249,37.949-14.862,51.232-29.634l43.679,25.218
			c-4.071,22.823,5.983,47.478,28.055,60.221c27.646,15.963,63.007,6.56,79.016-21.172
			C493.686,356.316,484.221,320.969,456.529,304.983z M418.404,140.981c8.805-5.084,20.056-2.074,25.143,6.737
			c5.085,8.808,2.074,20.056-6.737,25.143c-8.787,5.076-20.068,2.052-25.143-6.737C406.581,157.318,409.592,146.069,418.404,140.981
			z M100.332,166.126c-5.076,8.788-16.351,11.813-25.143,6.736c-8.808-5.085-11.825-16.33-6.737-25.143
			c5.066-8.774,16.296-11.843,25.143-6.736C102.403,146.068,105.42,157.314,100.332,166.126z M93.595,371.019
			c-8.789,5.076-20.045,2.093-25.143-6.737c-5.085-8.808-2.074-20.056,6.737-25.143c8.788-5.074,20.068-2.052,25.143,6.737
			C105.419,354.682,102.407,365.931,93.595,371.019z M255.999,39.438c10.149,0,18.406,8.257,18.406,18.406
			c0,10.15-8.257,18.406-18.406,18.406s-18.406-8.257-18.406-18.406S245.852,39.438,255.999,39.438z M255.999,472.562
			c-10.149,0-18.406-8.257-18.406-18.406c0-10.15,8.257-18.406,18.406-18.406s18.406,8.257,18.406,18.406
			S266.148,472.562,255.999,472.562z M255.999,311.989c-30.872,0-55.989-25.117-55.989-55.989c0-30.872,25.116-55.989,55.989-55.989
			c30.874,0,55.989,25.117,55.989,55.989C311.989,286.872,286.873,311.989,255.999,311.989z M443.547,364.281
			c-5.086,8.808-16.329,11.824-25.143,6.736c-8.808-5.085-11.825-16.331-6.737-25.143c5.073-8.787,16.35-11.813,25.143-6.737
			C445.619,344.223,448.634,355.468,443.547,364.281z"/>
	</g>
</g>
<g>
</g>
<g>
</g>
<g>
</g>
<g>
</g>
<g>
</g>
<g>
</g>
<g>
</g>
<g>
</g>
<g>
</g>
<g>
</g>
<g>
</g>
<g>
</g>
<g>
</g>
<g>
</g>
<g>
</g>
</svg>
