<?xml version="1.0" ?><svg data-name="Layer 1" id="Layer_1" viewBox="0 0 140 140" xmlns="http://www.w3.org/2000/svg"><defs><style>.cls-1{fill:#f0dc6a;}.cls-2{fill:#525354;}.cls-3{fill:#d7dadb;}.cls-4{fill:#333;}.cls-5{fill:#52b1b1;}.cls-6{fill:#fff;}.cls-7{fill:#d77165;}</style></defs><title/><circle class="cls-1" cx="70" cy="70" r="64"/><path class="cls-2" d="M83.27,106.22l-2.13-1.7a2,2,0,0,1-.74-1.34L79.5,95h-18l-.91,8.18a2,2,0,0,1-.74,1.34l-2.13,1.7a1,1,0,0,0,.62,1.78h24.3A1,1,0,0,0,83.27,106.22Z"/><path class="cls-3" d="M82.27,105.22l-2.13-1.7a2,2,0,0,1-.74-1.34L78.5,94h-18l-.91,8.18a2,2,0,0,1-.74,1.34l-2.13,1.7a1,1,0,0,0,.62,1.78h24.3A1,1,0,0,0,82.27,105.22Z"/><rect class="cls-2" height="62" rx="2" ry="2" width="89" x="26" y="33"/><rect class="cls-4" height="62" rx="2" ry="2" width="89" x="25" y="32"/><path class="cls-3" d="M114,86v6a2,2,0,0,1-2,2H27a2,2,0,0,1-2-2V86Z"/><rect class="cls-5" height="46" rx="1" ry="1" width="83" x="28" y="36"/><path class="cls-2" d="M70.89,90.39a1.09,1.09,0,0,1,.48-.9,1,1,0,0,0-.85-.67,2,2,0,0,0-.73.13.68.68,0,0,1-.49,0,2,2,0,0,0-.73-.13c-.6,0-1.09.81-1.09,1.82s.73,2.06,1.33,2.06c.18,0,.38-.25.59-.31a.51.51,0,0,1,.28,0c.21.06.41.31.59.31.45,0,1-.6,1.21-1.33A1.09,1.09,0,0,1,70.89,90.39Z"/><path class="cls-2" d="M70.31,88.13a1.43,1.43,0,0,1-.82.36,1.23,1.23,0,0,1,1.17-1.17A1.43,1.43,0,0,1,70.31,88.13Z"/><rect class="cls-6" height="33" rx="1" ry="1" width="60" x="44" y="41"/><path class="cls-3" d="M104,42v3H44V42a1,1,0,0,1,1-1h58A1,1,0,0,1,104,42Z"/><circle class="cls-7" cx="48" cy="43" r="1"/><circle class="cls-1" cx="51" cy="43" r="1"/><circle class="cls-5" cx="54" cy="43" r="1"/></svg>